<?xml version="1.0" standalone="no"?>
<!DOCTYPE svg PUBLIC "-//W3C//DTD SVG 20010904//EN"
 "http://www.w3.org/TR/2001/REC-SVG-20010904/DTD/svg10.dtd">
<svg version="1.0" xmlns="http://www.w3.org/2000/svg"
 width="1674.000000pt" height="1000.000000pt" viewBox="0 0 1674.000000 1000.000000"
 preserveAspectRatio="xMidYMid meet">

<g transform="translate(0.000000,1000.000000) scale(0.100000,-0.100000)"
fill="#000000" stroke="none">
<path d="M9065 8313 c-16 -2 -118 -14 -225 -28 -107 -14 -235 -30 -285 -36
-91 -11 -125 -27 -125 -59 0 -33 33 -51 83 -44 44 6 47 5 67 -27 19 -30 21
-45 17 -129 -2 -52 -21 -176 -41 -275 -20 -99 -48 -241 -62 -315 -14 -74 -36
-189 -49 -255 -13 -66 -36 -183 -50 -260 -15 -77 -35 -180 -45 -230 -11 -49
-22 -108 -25 -130 -4 -22 -19 -103 -35 -180 -15 -77 -40 -203 -55 -280 -14
-77 -37 -194 -49 -260 -13 -66 -32 -162 -42 -213 -16 -85 -20 -93 -43 -98 -15
-3 -51 -14 -81 -24 -30 -10 -104 -33 -165 -50 -60 -18 -144 -43 -185 -55 -41
-13 -115 -34 -165 -49 -49 -14 -120 -36 -158 -48 -37 -11 -69 -19 -72 -17 -2
3 7 65 20 139 112 629 119 694 91 810 -18 76 -68 152 -129 197 -51 38 -52 38
-147 38 -81 0 -102 -4 -145 -25 -27 -14 -68 -43 -91 -66 -36 -36 -124 -161
-174 -248 -134 -236 -178 -316 -303 -556 -32 -63 -67 -128 -77 -145 -9 -16
-55 -102 -100 -190 -45 -88 -102 -197 -127 -242 l-44 -81 -97 -30 c-53 -16
-167 -51 -252 -77 -213 -65 -203 -64 -196 -29 3 16 17 99 31 184 28 172 64
376 96 550 44 243 43 483 -4 582 -35 72 -67 104 -133 135 -87 40 -168 42 -255
8 -73 -28 -183 -96 -259 -159 -110 -92 -325 -313 -450 -463 -43 -53 -59 -64
-56 -40 3 31 -16 177 -28 217 -43 140 -115 237 -211 284 -50 24 -67 27 -156
27 -89 0 -106 -3 -152 -26 -53 -28 -110 -67 -137 -95 -187 -197 -341 -493
-480 -924 -68 -212 -67 -195 -12 -233 26 -17 53 -33 60 -35 9 -2 22 30 41 103
86 329 263 659 353 659 47 0 71 -85 70 -250 0 -119 -16 -237 -77 -585 -8 -44
-24 -140 -37 -214 l-22 -134 -134 7 c-336 18 -594 101 -792 255 -117 92 -210
190 -283 299 -84 125 -136 254 -174 432 -25 114 -27 143 -27 330 1 174 5 227
27 350 70 395 226 827 439 1213 41 74 48 95 48 142 0 49 -4 58 -37 94 -86 89
-182 74 -283 -46 -30 -35 -62 -72 -71 -81 -32 -35 -555 -660 -574 -686 -11
-16 -46 -60 -79 -99 -60 -74 -344 -451 -411 -547 -318 -455 -555 -880 -713
-1280 -61 -154 -162 -471 -176 -557 -4 -17 -15 -70 -27 -118 -50 -212 -70
-549 -45 -775 53 -477 240 -833 598 -1137 200 -168 383 -267 663 -356 398
-127 986 -131 1560 -10 66 14 138 29 160 33 212 44 656 183 980 308 28 11 88
34 135 52 47 18 89 37 94 41 6 5 16 9 23 9 6 0 40 13 75 29 35 16 225 102 423
192 198 89 416 189 485 222 69 33 253 118 410 189 157 71 326 149 375 173 114
55 209 99 393 181 133 60 225 103 422 197 36 17 186 86 333 153 260 119 268
122 263 96 -3 -15 -13 -67 -21 -117 -9 -49 -20 -106 -24 -127 -11 -46 -17 -45
130 -13 63 13 170 36 239 51 69 14 170 36 225 49 l100 22 17 124 c9 68 22 178
29 243 l13 119 101 47 c55 26 134 63 175 83 41 19 105 49 143 65 l67 31 57
-72 c31 -40 72 -90 89 -113 50 -63 95 -123 146 -195 94 -133 203 -202 328
-207 118 -4 127 2 540 408 199 195 365 356 370 358 5 2 12 -18 16 -45 9 -59
57 -175 93 -222 104 -139 259 -217 481 -241 330 -36 601 92 876 416 155 182
291 454 310 618 l6 51 -80 73 c-44 39 -83 72 -86 72 -3 0 -13 -26 -22 -57 -41
-145 -140 -380 -198 -470 -111 -170 -214 -265 -356 -325 -68 -29 -85 -32 -186
-32 -107 -1 -112 0 -154 29 -94 65 -129 167 -129 380 0 123 18 328 30 338 2 2
56 31 119 64 155 81 176 93 308 180 142 94 279 203 397 315 78 74 105 92 190
131 55 25 136 62 180 82 44 21 114 53 155 72 41 18 83 38 93 44 10 5 127 60
260 120 308 141 330 151 462 214 61 29 211 99 335 155 266 121 388 177 413
191 10 6 151 71 312 144 162 74 302 139 312 144 23 12 100 48 463 214 162 75
323 149 357 166 33 16 156 73 273 126 116 53 251 114 298 137 48 22 139 65
202 94 175 81 203 98 228 134 45 66 23 159 -51 214 -38 28 -113 25 -214 -7
-43 -14 -117 -37 -165 -51 -49 -14 -127 -38 -175 -52 -49 -14 -122 -36 -163
-49 -41 -12 -124 -37 -185 -55 -60 -18 -144 -43 -185 -56 -113 -34 -229 -69
-500 -149 -52 -15 -135 -40 -185 -55 -49 -16 -130 -40 -180 -55 -49 -14 -124
-37 -165 -49 -41 -13 -118 -35 -170 -51 -52 -15 -135 -40 -185 -55 -49 -15
-130 -40 -180 -55 -49 -15 -124 -37 -165 -50 -41 -12 -118 -35 -170 -50 -101
-29 -235 -69 -285 -85 -55 -17 -299 -90 -405 -121 -58 -17 -132 -40 -164 -50
-74 -23 -76 -23 -76 0 0 53 -53 181 -98 237 -59 72 -84 87 -206 120 -89 23
-113 25 -230 22 -107 -4 -145 -9 -206 -30 -236 -81 -440 -265 -651 -588 -31
-47 -59 -92 -62 -100 -28 -64 -86 -146 -107 -152 -14 -4 -65 -19 -115 -34 -49
-14 -124 -36 -165 -49 -41 -12 -131 -39 -200 -60 -69 -20 -142 -43 -163 -51
-20 -8 -41 -14 -45 -14 -5 0 4 38 19 84 57 177 61 306 14 432 -42 111 -89 168
-185 222 l-65 37 -130 -1 c-139 -1 -194 -14 -335 -83 -159 -78 -365 -228 -532
-390 -32 -30 -58 -51 -58 -46 0 6 9 71 20 145 10 74 31 221 45 325 14 105 37
267 50 360 13 94 36 256 50 360 28 206 63 441 76 520 18 102 22 181 10 203
-10 19 -20 22 -64 21 -29 -1 -65 -4 -82 -6z m7200 -542 c-6 -5 -136 -66 -290
-136 -154 -70 -325 -149 -380 -175 -133 -63 -207 -98 -410 -190 -93 -43 -219
-101 -280 -130 -60 -29 -218 -101 -350 -162 -132 -60 -273 -125 -313 -144 -39
-19 -98 -46 -130 -60 -31 -15 -100 -47 -152 -71 -52 -25 -163 -76 -246 -113
-149 -68 -247 -113 -414 -192 -47 -23 -161 -76 -255 -118 -93 -43 -204 -93
-245 -113 -310 -145 -553 -257 -561 -257 -9 0 0 19 43 90 101 167 186 410 204
583 l7 65 91 27 c50 15 123 36 161 47 39 12 111 33 160 48 50 16 131 40 180
55 50 15 124 37 165 49 41 13 118 35 170 51 92 27 173 51 365 110 136 41 229
69 350 105 61 18 169 50 240 72 185 56 346 104 450 134 50 15 124 37 165 49
41 13 84 25 95 28 11 3 94 28 185 56 91 28 210 64 265 81 55 16 177 52 270 80
262 78 325 97 390 118 71 23 82 25 70 13z m-13653 -453 c-11 -18 -56 -105
-100 -193 -295 -593 -444 -1223 -392 -1665 27 -228 102 -455 205 -620 106
-170 302 -359 465 -449 217 -119 423 -177 720 -201 80 -6 146 -13 148 -15 2
-1 -4 -43 -12 -91 -45 -258 -66 -386 -76 -449 -5 -38 -19 -122 -30 -185 -11
-63 -31 -185 -45 -270 -14 -85 -33 -195 -41 -243 -8 -49 -14 -90 -12 -92 2 -2
77 7 168 20 91 13 214 28 275 35 60 7 115 15 122 17 14 6 20 33 32 153 5 47
19 162 30 255 24 187 75 599 92 740 19 168 8 150 107 165 48 7 139 24 202 38
63 13 133 28 155 32 22 5 91 23 154 40 62 17 115 29 116 28 2 -2 -1 -28 -5
-58 -18 -117 -72 -473 -96 -625 -13 -88 -29 -188 -34 -221 -15 -91 -12 -219 6
-281 23 -78 80 -136 158 -158 70 -20 144 -17 201 10 83 38 209 168 281 288 16
27 38 63 48 80 22 37 106 205 106 212 0 11 86 178 153 295 11 19 94 168 185
330 90 162 179 320 198 351 19 31 34 59 34 63 0 3 15 29 34 58 32 50 37 54
102 72 89 24 140 39 243 70 46 14 86 25 87 23 3 -3 -18 -125 -75 -427 -120
-633 -124 -661 -118 -813 6 -154 30 -245 83 -320 19 -26 34 -49 34 -51 0 -1
-33 -18 -72 -36 -40 -18 -86 -39 -103 -47 -16 -8 -97 -45 -180 -83 -82 -37
-193 -88 -245 -112 -52 -25 -120 -56 -150 -70 -30 -14 -91 -43 -135 -63 -134
-63 -943 -431 -1030 -469 -16 -7 -88 -37 -160 -66 -71 -28 -161 -64 -200 -80
-115 -47 -442 -157 -605 -203 -388 -111 -669 -166 -980 -192 -347 -29 -553
-16 -896 55 -115 24 -379 135 -503 211 -115 70 -318 251 -407 364 -61 77 -94
123 -94 130 0 4 -9 19 -20 35 -55 78 -120 232 -158 380 -112 426 -57 986 150
1535 38 101 93 241 110 279 36 83 197 400 235 464 24 41 43 75 43 77 0 6 124
203 216 341 91 138 298 429 375 529 171 219 182 233 344 430 115 141 166 203
180 219 6 6 49 56 95 111 47 55 87 102 90 105 3 3 50 58 104 123 54 64 100
117 103 117 2 0 -4 -15 -15 -32z m9426 -432 c37 -19 70 -81 74 -139 l3 -48
-90 -28 c-49 -16 -139 -43 -200 -61 -60 -17 -138 -41 -173 -52 -35 -11 -65
-18 -68 -16 -16 16 74 167 140 236 95 100 236 148 314 108z m42 -423 c-26
-103 -114 -296 -156 -344 -8 -8 -14 -19 -14 -22 0 -9 -119 -166 -168 -221 -85
-97 -234 -236 -322 -302 -106 -79 -218 -150 -225 -142 -11 11 282 889 304 911
5 5 51 22 103 37 51 16 147 45 213 65 66 20 143 43 170 50 28 8 61 18 75 24
14 5 28 10 32 10 3 1 -2 -29 -12 -66z m-2458 -161 c81 -48 129 -130 127 -220
-2 -99 3 -94 -171 -146 -49 -14 -127 -38 -175 -52 -122 -36 -190 -57 -318 -95
-60 -17 -150 -45 -199 -60 -50 -16 -91 -27 -93 -25 -2 2 2 25 8 52 11 43 28
64 150 186 259 257 451 387 574 388 37 0 62 -7 97 -28z m1180 -229 c-64 -143
-95 -240 -156 -493 -23 -92 -77 -357 -83 -406 -5 -41 -6 -42 -97 -84 -50 -24
-141 -67 -202 -96 -60 -29 -207 -96 -325 -149 -118 -53 -230 -105 -249 -115
-93 -48 -191 -90 -200 -85 -5 3 -20 27 -33 53 -13 26 -33 63 -44 82 -85 149
-143 259 -143 269 0 5 15 14 33 21 112 41 241 134 388 280 167 165 305 347
438 578 6 11 131 51 511 163 58 18 123 37 145 44 22 7 42 11 44 9 2 -1 -11
-33 -27 -71z m-1146 -290 c-33 -85 -194 -260 -315 -342 -73 -50 -229 -129
-324 -165 -71 -26 -259 -81 -314 -90 -32 -5 -32 -5 -27 27 4 18 19 84 34 147
15 63 30 127 34 141 5 22 15 29 68 43 35 10 81 23 103 31 22 7 90 28 150 45
61 18 144 43 185 55 41 13 120 37 175 53 55 17 127 39 160 50 77 25 78 25 71
5z m-4597 -79 c31 -39 29 -196 -3 -358 -24 -119 -47 -255 -102 -611 -15 -99
-30 -183 -33 -187 -23 -27 -689 -183 -707 -165 -8 8 47 289 70 352 28 79 93
209 158 315 24 39 52 86 63 105 23 38 96 146 169 250 97 137 225 273 289 307
45 24 72 22 96 -8z m1615 -140 c11 -29 6 -128 -14 -289 -30 -241 -23 -220 -88
-239 -32 -9 -102 -30 -157 -46 -55 -16 -103 -30 -107 -30 -4 0 21 48 54 108
33 59 76 136 95 172 20 36 59 106 88 155 28 50 64 111 79 138 28 50 40 57 50
31z m1401 -331 c-9 -48 -27 -142 -40 -208 -13 -66 -37 -190 -54 -275 -17 -85
-53 -274 -81 -420 -71 -375 -90 -464 -98 -472 -4 -3 -52 -26 -107 -51 -155
-69 -296 -135 -339 -157 -22 -11 -40 -19 -42 -18 -1 2 21 39 50 83 80 121 217
382 232 439 5 22 -1 28 -56 56 -34 17 -63 30 -65 28 -1 -2 -16 -29 -34 -62
-63 -116 -192 -267 -274 -320 -32 -22 -76 -24 -88 -5 -5 8 -9 55 -9 104 0 84
15 191 75 545 22 129 49 286 86 508 8 46 17 72 25 72 7 0 33 6 56 14 24 8 106
33 183 56 77 23 174 53 215 65 41 13 118 36 170 51 52 15 120 35 150 44 30 10
57 16 59 14 2 -2 -4 -43 -14 -91z m2399 -401 c-51 -142 -94 -203 -287 -402
-226 -234 -264 -268 -306 -280 -57 -16 -117 21 -179 112 -47 69 -133 228 -128
237 3 5 88 45 188 91 101 46 228 104 283 130 55 26 127 60 160 75 33 15 94 43
135 63 136 64 155 71 158 61 2 -5 -9 -44 -24 -87z m-1892 -121 c2 -4 14 -23
28 -41 33 -42 143 -182 197 -249 24 -29 43 -60 43 -67 0 -8 -19 -23 -42 -34
-24 -10 -86 -39 -138 -63 -52 -25 -112 -52 -134 -61 l-39 -16 8 52 c3 29 10
92 15 139 15 157 43 349 51 349 4 0 9 -4 11 -9z m-2642 -37 c0 -4 -28 -59 -61
-123 -61 -114 -121 -228 -214 -406 -139 -265 -177 -325 -204 -325 -49 0 -48
206 0 616 6 50 14 97 18 103 7 10 102 42 226 76 28 7 86 24 130 38 86 27 105
31 105 21z"/>
<path d="M6990 7883 c-121 -46 -205 -120 -254 -222 -28 -59 -31 -75 -31 -161
0 -86 3 -102 31 -161 165 -348 683 -293 757 81 30 149 -21 289 -140 386 -76
62 -144 84 -256 83 -51 0 -99 -3 -107 -6z"/>
</g>
</svg>
